<?xml version="1.0" encoding="utf-8"?>
<!-- Generator: Adobe Illustrator 19.0.0, SVG Export Plug-In . SVG Version: 6.00 Build 0)  -->
<svg version="1.1" id="Layer_1" xmlns="http://www.w3.org/2000/svg" xmlns:xlink="http://www.w3.org/1999/xlink" x="0px" y="0px"
	 viewBox="0 0 170 90" style="enable-background:new 0 0 170 90;" xml:space="preserve">
<style type="text/css">
	.st0{fill:#E2231A;}
	.st1{fill:none;}
</style>
<g id="XMLID_120_">
	<path id="XMLID_178_" class="st0" d="M83.1,55.7h-2.1c-0.1,0-0.2,0-0.2,0.1c-0.1,0.1-0.1,0.1-0.1,0.2v3.9c-0.2-0.3-0.4-0.6-0.6-0.8
		c-0.2-0.3-0.4-0.5-0.6-0.8c-0.3-0.4-0.6-0.8-0.9-1.2c-0.3-0.4-0.6-0.8-0.9-1.2c0,0-0.1-0.1-0.1-0.1c-0.1,0-0.1,0-0.2,0h-2.3
		c-0.1,0-0.2,0-0.2,0.1c-0.1,0.1-0.1,0.1-0.1,0.2v7.6c0,0.1,0,0.2,0.1,0.2c0.1,0.1,0.1,0.1,0.2,0.1h2.1c0.1,0,0.2,0,0.2-0.1
		c0.1-0.1,0.1-0.1,0.1-0.2v-3.8l3,4c0,0,0.1,0.1,0.1,0.1c0.1,0,0.1,0,0.1,0h2.4c0.1,0,0.2,0,0.2-0.1c0.1-0.1,0.1-0.1,0.1-0.2V56
		c0-0.1,0-0.2-0.1-0.2C83.3,55.7,83.2,55.7,83.1,55.7z M39.1,61.7h-3.8v-0.9l3,0c0.1,0,0.2,0,0.2-0.1c0.1-0.1,0.1-0.1,0.1-0.2V59
		c0-0.1,0-0.2-0.1-0.2c-0.1-0.1-0.1-0.1-0.2-0.1h-3v-0.8h3.5c0.1,0,0.2,0,0.2-0.1c0.1-0.1,0.1-0.1,0.1-0.2V56c0-0.1,0-0.2-0.1-0.2
		c-0.1-0.1-0.1-0.1-0.2-0.1h-6.1c-0.1,0-0.2,0-0.2,0.1c-0.1,0.1-0.1,0.1-0.1,0.2v7.6c0,0.1,0,0.2,0.1,0.2c0.1,0.1,0.1,0.1,0.2,0.1
		h6.4c0.1,0,0.2,0,0.2-0.1c0.1-0.1,0.1-0.1,0.1-0.2v-1.5c0-0.1,0-0.2-0.1-0.2C39.3,61.8,39.2,61.7,39.1,61.7z M56.9,55.7h-2
		c-0.1,0-0.1,0-0.2,0.1c-0.1,0.1-0.1,0.1-0.1,0.2v7.6c0,0.1,0,0.2,0.1,0.2c0.1,0.1,0.1,0.1,0.2,0.1h2c0.1,0,0.1,0,0.2-0.1
		c0.1-0.1,0.1-0.1,0.1-0.2V56c0-0.1,0-0.2-0.1-0.2C57,55.7,57,55.7,56.9,55.7z M70.4,59.2H67c-0.1,0-0.2,0-0.2,0.1
		c-0.1,0.1-0.1,0.1-0.1,0.2v1.4c0,0.1,0,0.2,0.1,0.2c0.1,0.1,0.1,0.1,0.2,0.1h1.1v0.5c-0.3,0.1-0.8,0.2-1.4,0.2
		c-0.8,0-1.4-0.2-1.9-0.6c-0.4-0.4-0.7-0.9-0.7-1.5c0-0.7,0.2-1.2,0.7-1.7c0.5-0.4,1.2-0.6,2-0.6c0.3,0,0.5,0,0.8,0
		c0.3,0,0.5,0.1,0.8,0.1c0.5,0.1,1,0.2,1.4,0.3c0.1,0,0.2,0,0.3-0.1c0.1-0.1,0.1-0.2,0.1-0.3L70,56.2c0-0.1,0-0.1-0.1-0.2
		c0-0.1-0.1-0.1-0.2-0.1c-0.4-0.1-0.8-0.2-1.4-0.3c-0.6-0.1-1.3-0.1-2-0.1c-1.5,0-2.8,0.4-3.7,1.2c-0.9,0.8-1.4,1.9-1.4,3.3
		c0,1.4,0.5,2.4,1.4,3.1c0.9,0.7,2.3,1,4,1c0.8,0,1.5,0,2.1-0.1c0.7-0.1,1.2-0.2,1.8-0.4c0.1,0,0.1-0.1,0.2-0.1
		c0-0.1,0.1-0.1,0.1-0.2v-3.7c0-0.1,0-0.2-0.1-0.2C70.5,59.2,70.5,59.2,70.4,59.2z M47.6,58.6c-0.3-0.1-0.6-0.1-0.8-0.2
		c-0.2-0.1-0.4-0.1-0.6-0.2c-0.2-0.1-0.3-0.2-0.3-0.3c0-0.1,0.1-0.2,0.3-0.3c0.2,0,0.4-0.1,0.7-0.1c0.4,0,0.9,0.1,1.4,0.2
		c0.3,0.1,0.5,0.2,0.7,0.3c0.2,0.1,0.5,0.2,0.7,0.3c0.1,0.1,0.2,0.1,0.3,0c0.1-0.1,0.1-0.2,0.1-0.3L50,56.2c0-0.1,0-0.1-0.1-0.2
		c0-0.1-0.1-0.1-0.2-0.1c-0.1,0-0.3-0.1-0.5-0.1c-0.2,0-0.4-0.1-0.7-0.1c-0.6-0.1-1.1-0.1-1.6-0.1c-1.1,0-2,0.2-2.6,0.7
		c-0.6,0.5-0.9,1.1-0.9,2c0,0.8,0.3,1.4,0.8,1.8c0.5,0.4,1.3,0.7,2.5,1c0.6,0.1,1.1,0.2,1.2,0.4c0.1,0.1,0.2,0.2,0.2,0.2
		c0,0.1-0.1,0.3-0.3,0.3C47.6,61.9,47.4,62,47,62c-0.5,0-1.1-0.1-1.7-0.3c-0.6-0.2-1.1-0.4-1.4-0.6c-0.1-0.1-0.2-0.1-0.3,0
		c-0.1,0.1-0.1,0.2-0.1,0.3l0.2,2c0,0.1,0,0.1,0.1,0.2c0,0.1,0.1,0.1,0.2,0.1c0.1,0,0.2,0,0.3,0.1c0.1,0,0.3,0.1,0.5,0.1v0
		c0.1,0,0.1,0,0.2,0c0.1,0,0.1,0,0.2,0c0.3,0,0.6,0.1,0.9,0.1c0.3,0,0.6,0,0.9,0c0.6,0,1.1-0.1,1.6-0.2c0.5-0.1,0.8-0.3,1.2-0.5
		c0.3-0.2,0.6-0.5,0.7-0.9c0.2-0.3,0.3-0.8,0.3-1.2c0-0.7-0.2-1.3-0.7-1.7C49.5,59.1,48.7,58.8,47.6,58.6z M136.5,58.6
		c-0.3-0.1-0.6-0.1-0.8-0.2c-0.2-0.1-0.4-0.1-0.6-0.2c-0.2-0.1-0.3-0.2-0.3-0.3c0-0.1,0.1-0.2,0.3-0.3c0.2,0,0.4-0.1,0.7-0.1
		c0.4,0,0.9,0.1,1.4,0.2c0.3,0.1,0.5,0.2,0.7,0.3c0.2,0.1,0.5,0.2,0.7,0.3c0.1,0.1,0.2,0.1,0.3,0c0.1-0.1,0.1-0.2,0.1-0.3l-0.2-1.8
		c0-0.1,0-0.1-0.1-0.2c0-0.1-0.1-0.1-0.2-0.1c-0.1,0-0.3-0.1-0.5-0.1c-0.2,0-0.4-0.1-0.7-0.1c-0.6-0.1-1.1-0.1-1.6-0.1
		c-1.1,0-2,0.2-2.6,0.7c-0.6,0.5-0.9,1.1-0.9,2c0,0.8,0.3,1.4,0.8,1.8c0.5,0.4,1.3,0.7,2.5,1c0.6,0.1,1.1,0.2,1.2,0.4
		c0.1,0.1,0.2,0.2,0.2,0.2c0,0.1-0.1,0.3-0.3,0.3c-0.2,0.1-0.4,0.1-0.8,0.1c-0.5,0-1.1-0.1-1.7-0.3c-0.6-0.2-1.1-0.4-1.4-0.6
		c-0.1-0.1-0.2-0.1-0.3,0c-0.1,0.1-0.1,0.2-0.1,0.3l0.2,2c0,0.1,0,0.1,0.1,0.2c0,0.1,0.1,0.1,0.2,0.1c0.1,0,0.2,0,0.3,0.1
		c0.1,0,0.3,0.1,0.5,0.1v0c0.1,0,0.1,0,0.2,0c0.1,0,0.1,0,0.2,0c0.3,0,0.6,0.1,0.9,0.1c0.3,0,0.6,0,0.9,0c0.6,0,1.1-0.1,1.6-0.2
		c0.5-0.1,0.8-0.3,1.2-0.5c0.3-0.2,0.6-0.5,0.7-0.9c0.2-0.3,0.3-0.8,0.3-1.2c0-0.7-0.2-1.3-0.7-1.7
		C138.4,59.1,137.6,58.8,136.5,58.6z M24.1,55.7h-4.6c-0.1,0-0.2,0-0.2,0.1c-0.1,0.1-0.1,0.1-0.1,0.2v7.6c0,0.1,0,0.2,0.1,0.2
		c0.1,0.1,0.1,0.1,0.2,0.1h4.6c1.2,0,2.2-0.4,3-1.2c0.8-0.8,1.2-1.8,1.2-3c0-1.2-0.4-2.2-1.2-3C26.4,56,25.4,55.7,24.1,55.7z
		 M25.1,61c-0.3,0.3-0.6,0.4-1.1,0.4h-1.8v-3.2H24c0.5,0,0.8,0.1,1.1,0.4c0.2,0.3,0.4,0.7,0.4,1.2C25.5,60.3,25.4,60.7,25.1,61z
		 M150.3,61.7h-3.8v-0.9l3,0c0.1,0,0.2,0,0.2-0.1c0.1-0.1,0.1-0.1,0.1-0.2V59c0-0.1,0-0.2-0.1-0.2c-0.1-0.1-0.1-0.1-0.2-0.1h-3v-0.8
		h3.5c0.1,0,0.2,0,0.2-0.1c0.1-0.1,0.1-0.1,0.1-0.2V56c0-0.1,0-0.2-0.1-0.2c-0.1-0.1-0.1-0.1-0.2-0.1h-6.2c-0.1,0-0.2,0-0.2,0.1
		c-0.1,0.1-0.1,0.1-0.1,0.2v7.6c0,0.1,0,0.2,0.1,0.2c0.1,0.1,0.1,0.1,0.2,0.1h6.4c0.1,0,0.2,0,0.2-0.1c0.1-0.1,0.1-0.1,0.1-0.2v-1.5
		c0-0.1,0-0.2-0.1-0.2C150.5,61.8,150.4,61.7,150.3,61.7z M110.7,55.5c-1.6,0-2.9,0.4-3.7,1.1c-0.8,0.7-1.3,1.8-1.3,3.2
		c0,1.4,0.4,2.5,1.3,3.2c0.8,0.7,2.1,1.1,3.7,1.1c1.6,0,2.9-0.4,3.7-1.1c0.8-0.7,1.3-1.8,1.3-3.2c0-1.4-0.4-2.5-1.3-3.2
		C113.6,55.9,112.3,55.5,110.7,55.5z M112.2,61.2c-0.3,0.3-0.9,0.5-1.5,0.5c-0.7,0-1.2-0.2-1.5-0.5c-0.3-0.3-0.5-0.8-0.5-1.4
		c0-0.6,0.2-1.1,0.5-1.4c0.3-0.3,0.8-0.5,1.5-0.5c0.7,0,1.2,0.2,1.5,0.5c0.3,0.3,0.5,0.8,0.5,1.4C112.7,60.4,112.6,60.8,112.2,61.2z
		 M101.4,55.7h-2.3c-0.1,0-0.2,0-0.2,0.1c-0.1,0.1-0.1,0.1-0.1,0.2v2.6H96V56c0-0.1,0-0.2-0.1-0.2c-0.1-0.1-0.1-0.1-0.2-0.1h-2.3
		c-0.1,0-0.2,0-0.2,0.1c-0.1,0.1-0.1,0.1-0.1,0.2v7.6c0,0.1,0,0.2,0.1,0.2c0.1,0.1,0.1,0.1,0.2,0.1h2.3c0.1,0,0.2,0,0.2-0.1
		c0.1-0.1,0.1-0.1,0.1-0.2v-2.8h2.7v2.8c0,0.1,0,0.2,0.1,0.2c0.1,0.1,0.1,0.1,0.2,0.1h2.3c0.1,0,0.2,0,0.2-0.1
		c0.1-0.1,0.1-0.1,0.1-0.2V56c0-0.1,0-0.2-0.1-0.2C101.6,55.7,101.5,55.7,101.4,55.7z M127.9,55.7h-2.2c-0.1,0-0.2,0-0.2,0.1
		c-0.1,0.1-0.1,0.1-0.1,0.2v4.3c0,0.5-0.1,0.8-0.3,1c-0.2,0.2-0.6,0.3-1.1,0.3c-0.5,0-0.9-0.1-1.1-0.3c-0.2-0.2-0.3-0.5-0.3-1V56
		c0-0.1,0-0.2-0.1-0.2c-0.1-0.1-0.1-0.1-0.2-0.1H120c-0.1,0-0.2,0-0.2,0.1c-0.1,0.1-0.1,0.1-0.1,0.2v5.3c0,1.1,0.4,1.8,1.1,2.3
		c0.7,0.4,1.7,0.6,3.1,0.6c1.4,0,2.4-0.2,3.1-0.6c0.8-0.4,1.2-1.1,1.2-2.2V56c0-0.1,0-0.2-0.1-0.2C128.1,55.7,128,55.7,127.9,55.7z
		 M18,19.5H3c-0.3,0-0.6,0.1-0.8,0.3C2.1,20,2,20.2,2,20.5v25c0,0.3,0.1,0.5,0.3,0.7c0.2,0.2,0.5,0.3,0.8,0.3h15.2
		c4,0,7.3-1.3,9.9-3.8c2.6-2.6,3.9-5.8,3.9-9.7c0-4-1.3-7.3-3.8-9.8C25.5,20.7,22.2,19.5,18,19.5z M21.3,37
		c-0.9,0.9-2.1,1.3-3.8,1.3h-5.8V27.7h6.1c1.6,0,2.7,0.4,3.6,1.3c0.8,0.9,1.2,2.2,1.2,4C22.5,34.8,22.1,36.1,21.3,37z M167.7,19.8
		c-0.2-0.2-0.5-0.3-0.8-0.3h-23.9c-0.3,0-0.5,0.1-0.7,0.3c-0.2,0.2-0.3,0.4-0.3,0.7v4.7c0,0.3,0.1,0.6,0.3,0.8
		c0.2,0.2,0.4,0.3,0.7,0.3h7.1v19.2c0,0.3,0.1,0.5,0.3,0.7c0.2,0.2,0.4,0.3,0.7,0.3h7.5c0.3,0,0.5-0.1,0.7-0.3
		c0.2-0.2,0.3-0.4,0.3-0.7V26.3h7.1c0.3,0,0.6-0.1,0.8-0.3c0.2-0.2,0.3-0.5,0.3-0.8v-4.7C168,20.2,167.9,20,167.7,19.8z M68.3,46
		c0.2-0.3,0.2-0.7-0.1-1.1l-4.7-8c-0.3-0.5-0.8-0.9-1.3-1.4c-0.5-0.5-1.1-0.9-1.9-1.3c0.6-0.2,1.2-0.4,1.7-0.7
		c0.5-0.3,1-0.5,1.4-0.8c1.6-1.2,2.4-3.1,2.4-5.7c0-2.3-1-4.2-2.9-5.6c-1.8-1.3-4.2-2-7.1-2H38.4c-0.3,0-0.5,0.1-0.7,0.3
		c-0.2,0.2-0.3,0.4-0.3,0.7v25c0,0.3,0.1,0.5,0.3,0.7c0.2,0.2,0.4,0.3,0.7,0.3h7.7c0.3,0,0.6-0.1,0.8-0.3c0.2-0.2,0.3-0.4,0.3-0.7
		v-8.5h3.3c1.2,0,2,0.1,2.1,0.2c0.1,0.1,0.2,0.2,0.3,0.3c0.1,0.1,0.2,0.2,0.3,0.3l0-0.1l4.4,8.2c0.1,0.2,0.2,0.3,0.4,0.4
		c0.2,0.1,0.3,0.2,0.5,0.2h8.8C67.7,46.5,68.1,46.3,68.3,46z M54.9,30.2c-0.9,0.4-2.1,0.6-3.8,0.6h-4.1v-5.1h5.4
		c1.3,0,2.2,0.2,2.9,0.6c0.7,0.4,1,1,1,1.9C56.2,29.1,55.8,29.8,54.9,30.2z M132.8,35.9l0-5c0-0.3-0.1-0.5-0.3-0.7
		c-0.2-0.2-0.4-0.3-0.7-0.3h-9.4v-3.3h12.7c0.3,0,0.5-0.1,0.7-0.3c0.2-0.2,0.3-0.5,0.3-0.8v-5c0-0.3-0.1-0.5-0.3-0.7
		c-0.2-0.2-0.4-0.3-0.7-0.3h-21.2c-0.3,0-0.6,0.1-0.8,0.3c-0.2,0.2-0.3,0.4-0.3,0.7v25c0,0.3,0.1,0.5,0.3,0.7
		c0.2,0.2,0.5,0.3,0.8,0.3h7.4c0.3,0,0.5-0.1,0.7-0.3c0.2-0.2,0.3-0.4,0.3-0.7v-8.5h9.3c0.3,0,0.5-0.1,0.7-0.3
		C132.7,36.4,132.8,36.2,132.8,35.9z M105.2,46.5c0.8,0,1.4-0.6,1.4-1.4V31.9c0-1.4-1.3-3.5-4.1-8.2L91,3.9
		c-0.2-0.5-0.5-0.9-0.7-1.3c-0.2-0.4-0.5-0.6-0.8-0.6c-0.3,0-0.5,0.2-0.8,0.6L75.6,25.2c-0.8,1.3-1.5,2.4-1.9,3.3l-0.1,0.1l0,0
		c-0.8,1.4-1.1,2.4-1.1,3.2v13.4c0,0.7,0.6,1.3,1.3,1.3h5.5c0.7,0,1.3-0.6,1.3-1.3V34.7c0-1.7,1.3-3.2,3-3.3
		c1.8-0.1,3.3,1.4,3.3,3.1v10.7c0,0.7,0.6,1.3,1.3,1.3H105.2z M98.2,32.7v5.8c0,0.6-0.5,1.1-1.1,1.1H93c-0.6,0-1.1-0.5-1.1-1.1v-5.8
		c0-0.6,0.5-1.1,1.1-1.1h4.1C97.7,31.6,98.2,32.1,98.2,32.7z M82.2,26.6c-0.2,0-0.3-0.1-0.2-0.3c2-3.3,3.5-5.9,5-8.3
		c0.7-1.1,1.6-1.7,2.5-1.8c0.9,0.1,1.7,0.6,2.5,1.8c1.6,2.5,3,5,5.1,8.4c0.1,0.1,0,0.3-0.2,0.2c-2.9-0.6-5.1-1.4-7.4-1.5
		C87.3,25.2,85.1,25.9,82.2,26.6z"/>
	<rect id="XMLID_177_" x="0" y="0" class="st1" width="170" height="90"/>
</g>
</svg>
